<svg version="1.1" id="Слой_1" xmlns="http://www.w3.org/2000/svg" xmlns:xlink="http://www.w3.org/1999/xlink" x="0px" y="0px"
	 viewBox="0 0 82 82" enable-background="new 0 0 82 82" xml:space="preserve">
  <path fill="#3F3A3A" d="M78.4,41c0,21.4-16.8,38.8-37.4,38.8S3.6,62.4,3.6,41S20.3,2.2,41,2.2S78.4,19.6,78.4,41z"/>
  <path fill="#282626" d="M41,0.9C18.9,0.9,0.9,18.9,0.9,41S18.8,81.1,41,81.1S81.1,63.2,81.1,41S63.1,0.9,41,0.9z M41,76.3
    c-19.7,0-35.7-16-35.7-35.7S21.3,4.9,41,4.9s35.7,16,35.7,35.7S60.7,76.3,41,76.3z"/>
  <path fill="#B71A1A" d="M28.9,63.3V18.6h9.2c1.7,0,3.1,0,4.4,0.3c1.3,0.2,2.5,0.5,3.7,1s2.2,1.2,3,2s1.4,2,1.9,3.3
    c0.5,1.4,0.7,3,0.7,4.9s-0.6,4.2-1.7,5.5C49,36.9,47.3,38,45,38.8c5.3,1.3,8,5,8,11.3s-1.1,7.8-3.2,10c-2.2,2.2-5.4,3.2-9.9,3.2
    C39.9,63.3,28.9,63.3,28.9,63.3z M37.9,36.2h1.5c0.8,0,1.5-0.2,2.1-0.5s1-0.8,1.3-1.4c0.3-0.6,0.5-1.3,0.6-2s0.2-1.5,0.2-2.5
    s0-1.4-0.2-2c-0.1-0.6-0.2-1-0.4-1.4c-0.1-0.4-0.4-0.7-0.7-0.9c-0.3-0.3-0.6-0.4-0.8-0.6c-0.2-0.1-0.6-0.2-1.1-0.3
    c-0.5,0-0.9,0-1.2,0s-0.8,0-1.4,0v11.5L37.9,36.2z M38,56.9h0.8c1.2,0,2.1-0.1,2.9-0.4c0.7-0.3,1.3-0.7,1.7-1.4s0.6-1.4,0.8-2.2
    c0.1-0.8,0.2-2,0.2-3.4c0-2.3-0.4-4.1-1.2-5.4c-0.8-1.3-2.2-1.9-4.2-1.9h-0.9L38,56.9L38,56.9z"/>
</svg>
