<svg version="1.1" id="Слой_1" xmlns="http://www.w3.org/2000/svg" xmlns:xlink="http://www.w3.org/1999/xlink" x="0px" y="0px"
	 viewBox="0 0 586 768" enable-background="new 0 0 586 768" xml:space="preserve">
	<path fill="#FFFFFF" d="M353.3,744.6c-13.1,4.9-63,22.4-86.2,0c-8-7.7-11.9-19.1-17.2-34.5c-8-23.2-5.8-34.6-17.2-51.7
		c-5.3-8-9.5-14.6-17.2-17.2c-4.6-1.6-9.7-1.7-17.2,0c-15.4,3.4-23.5,10.3-34.6,16.8c-22,12.9-42.3,16.2-51.6,17.6
		c-13.9,2.3-23.3,3.7-34.5,0C56,668.5,46,648,43.1,641.2c-5.8-8.5-12.5-20-17.2-34.5c-2.8-8.5-13.8-44.4,0-86.2
		c2.5-7.4,7.4-20.4,17.2-34.5c12.1-17.4,25.6-28.4,34.5-34.5c5.7-4,17.6-12.1,34.5-17.2c0,0,20.3-6.2,86.2,0c-0.3,0,11.4,1.6,17.2,0
		c8.6-2.4,11-14.2,17.2-34.5c2.5-8.2,9.3-30.4,17.6-50c9.3-21.7,12.2-21.1,16.8-36.2c2.7-8.6,12.3-40,0-50c-4.2-3.4-7.8-1.6-34.5,0
		c-19.5,1.2-29.2,1.7-34.5,0c-15-4.9-23.3-17.6-34.5-34.5c-4.6-7-11.8-18.2-17.2-34.5c-13.8-41.6-2.9-77.6,0-86.2
		c2.5-7.7,7.6-20.6,17.2-34.5C175.7,56.8,189,46,198.2,39.6c7.4-4.9,19.1-11.8,34.5-17.2c14.2-5,61.4-21.7,86.2,0
		c7.7,6.8,10.9,15.9,17.2,34.5c7.2,20.7,6.4,32.4,17.2,51.7c4.6,8.2,9.5,14.6,17.2,17.2c4.5,1.6,9.4,1.2,17.2,0
		c14.6-2.3,20.7-9.3,34.5-17.2c20.3-11.8,38.5-15,51.7-17.2c20.6-3.6,28-0.8,30.9,0.4c5.2,2.3,10.5,7.2,20.8,16.8
		c9,8.4,13.4,12.6,17.2,17.2c5.2,6.5,12.6,17.5,17.2,34.5c4.4,14.9,12.3,48.9,0,86.2c-5.7,17.2-14.1,30-17.2,34.5
		c-12.1,17.4-25.6,28.4-34.5,34.5c-5.8,4-17.5,12.1-34.5,17.2c-37.8,11.7-77.3,2.1-86.2,0c-4.8-1.2-10.9-2.9-17.2,0
		c-8.9,4-11.3,14.2-17.2,34.5c-7.4,25.3-11.3,37.9-17.2,51.7c-8.9,20.2-12.2,19.1-17.2,34.5c-1.9,5.7-12.9,39.6,0,50
		c4.2,3.4,7.8,1.6,34.5,0c19.5-1.2,29.2-1.7,34.5,0c15,4.9,23.3,17.6,34.5,34.5c4.6,7,11.8,18.2,17.2,34.5c13.8,41.5,2.9,77.4,0,86.2
		c-5.4,16.4-13,28.4-17.2,34.5c-3.2,4.6-14.5,20.2-34.6,34.2C374.9,735.9,362.9,741.2,353.3,744.6z"/>
	<rect x="474" y="315.3" width="34.5" height="17.2"/>
	<polygon points="542.9,280.8 542.9,315.3 508.5,315.3 508.5,298 525.7,298 525.7,280.8 "/>
	<rect x="542.9" y="246.3" width="17.2" height="34.5"/>
	<rect x="387.8" y="332.5" width="86.2" height="17.2"/>
	<rect x="146.5" y="194.6" width="17.2" height="34.5"/>
	<polygon points="198.2,246.3 198.2,263.6 163.7,263.6 163.7,229.1 181,229.1 181,246.3 "/>
	<rect x="198.2" y="263.6" width="34.5" height="17.2"/>
	<rect x="129.2" y="108.4" width="17.2" height="86.2"/>
	<rect x="198.2" y="22.2" width="34.5" height="17.2"/>
	<polygon points="198.2,39.5 198.2,56.7 181,56.7 181,73.9 163.7,73.9 163.7,39.5 "/>
	<rect x="146.5" y="73.9" width="17.2" height="34.5"/>
	<rect x="232.7" y="5" width="86.2" height="17.2"/>
	<rect x="560.2" y="160.1" width="17.2" height="86.2"/>
	<rect x="542.9" y="125.7" width="17.2" height="34.5"/>
	<polygon points="542.9,91.2 542.9,125.7 525.7,125.7 525.7,108.4 508.5,108.4 508.5,91.2 "/>
	<rect x="474" y="73.9" width="34.5" height="17.2"/>
	<rect x="318.9" y="22.2" width="17.2" height="34.5"/>
	<rect x="232.7" y="246.3" width="34.5" height="17.2"/>
	<rect x="422.3" y="91.2" width="51.7" height="17.2"/>
	<rect x="387.8" y="108.4" width="34.5" height="17.2"/>
	<rect x="336.1" y="56.7" width="17.2" height="51.7"/>
	<rect x="370.6" y="125.8" width="17.2" height="17.2"/>
	<rect x="353.4" y="108.5" width="17.2" height="17.2"/>
	<rect x="267.1" y="744.6" width="86.2" height="17.2"/>
	<rect x="353.3" y="727.4" width="34.5" height="17.2"/>
	<polygon points="422.3,692.9 422.3,727.4 387.8,727.4 387.8,710.1 405,710.1 405,692.9 "/>
	<rect x="422.3" y="658.4" width="17.2" height="34.5"/>
	<rect x="25.8" y="606.7" width="17.2" height="34.5"/>
	<polygon points="77.5,658.4 77.5,675.7 43.1,675.7 43.1,641.2 60.3,641.2 60.3,658.4 "/>
	<rect x="77.5" y="675.7" width="34.5" height="17.2"/>
	<rect x="8.6" y="520.5" width="17.2" height="86.2"/>
	<rect x="77.5" y="434.3" width="34.5" height="17.2"/>
	<polygon points="77.5,451.6 77.5,468.8 60.3,468.8 60.3,486.1 43.1,486.1 43.1,451.6 "/>
	<rect x="25.8" y="486.1" width="17.2" height="34.5"/>
	<rect x="112" y="417.1" width="86.2" height="17.2"/>
	<rect x="439.5" y="572.2" width="17.2" height="86.2"/>
	<rect x="422.3" y="537.8" width="17.2" height="34.5"/>
	<polygon points="422.3,503.3 422.3,537.8 405,537.8 405,520.5 387.8,520.5 387.8,503.3 "/>
	<rect x="353.3" y="486.1" width="34.5" height="17.2"/>
	<rect x="318.9" y="503.3" width="34.5" height="17.2"/>
	<rect x="198.2" y="434.3" width="17.2" height="51.7"/>
	<rect x="249.9" y="710.1" width="17.2" height="34.5"/>
	<rect x="112" y="658.4" width="51.7" height="17.2"/>
	<rect x="232.7" y="658.4" width="17.2" height="51.7"/>
	<rect x="163.7" y="641.2" width="34.5" height="17.2"/>
	<rect x="198.1" y="624" width="17.2" height="17.2"/>
	<rect x="215.4" y="641.2" width="17.2" height="17.2"/>
	<rect x="353.3" y="332.5" width="17.2" height="34.5"/>
	<rect x="336.1" y="367" width="17.2" height="51.7"/>
	<rect x="318.9" y="418.7" width="17.2" height="34.5"/>
	<rect x="301.6" y="453.2" width="17.2" height="51.7"/>
	<rect x="267.1" y="263.6" width="17.2" height="51.7"/>
	<rect x="249.9" y="313.7" width="17.2" height="34.5"/>
	<rect x="232.7" y="348.2" width="17.2" height="51.7"/>
	<rect x="215.4" y="399.9" width="17.2" height="34.5"/>
	<rect x="474" y="298" fill="#AAAAAA" width="17.2" height="17.2"/>
	<polygon fill="#AAAAAA" points="542.9,246.3 542.9,280.8 525.7,280.8 525.7,298 508.5,298 508.5,315.3 474,315.3 474,332.5 
		387.8,332.5 387.8,298 474,298 474,280.8 508.5,280.8 508.5,263.6 525.7,263.6 525.7,246.3 "/>
	<rect x="267.1" y="727.4" fill="#AAAAAA" width="86.2" height="17.2"/>
	<rect x="353.3" y="710.1" fill="#AAAAAA" width="34.5" height="17.2"/>
	<rect x="387.8" y="692.9" fill="#AAAAAA" width="17.2" height="17.2"/>
	<rect x="405" y="658.4" fill="#AAAAAA" width="17.2" height="34.5"/>
	<rect x="422.3" y="606.7" fill="#AAAAAA" width="17.2" height="51.7"/>
	<rect x="318.9" y="384.2" fill="#AAAAAA" width="17.2" height="34.5"/>
	<rect x="301.6" y="418.7" fill="#AAAAAA" width="17.2" height="34.5"/>
	<rect x="336.1" y="332.5" fill="#AAAAAA" width="17.2" height="34.5"/>
	<rect x="370.6" y="280.8" width="17.2" height="51.7"/>
	<rect x="353.3" y="298" fill="#AAAAAA" width="17.2" height="34.5"/>
	<rect x="542.9" y="229.1" fill="#AAAAAA" width="17.2" height="17.2"/>
</svg>
