<svg width="50" height="49" xmlns="http://www.w3.org/2000/svg" version="1.1" xmlns:xlink="http://www.w3.org/1999/xlink" viewBox="0 0 64 64">
  <defs>
    <radialGradient id="_Безымянный_градиент" data-name="Безымянный градиент" cx="29.8" cy="-1653.4" fx="29.8" fy="-1653.4" r="4.2" gradientTransform="translate(-1.4 -1600.6) scale(1 -1)" gradientUnits="userSpaceOnUse">
      <stop offset="0" stop-color="#000"/>
      <stop offset="0" stop-color="#0a0a0a"/>
      <stop offset=".2" stop-color="#252525"/>
      <stop offset=".4" stop-color="#515151"/>
      <stop offset=".6" stop-color="#8f8f8f"/>
      <stop offset=".9" stop-color="#dcdcdc"/>
      <stop offset="1" stop-color="#fff"/>
    </radialGradient>
    <radialGradient id="_Безымянный_градиент_2" data-name="Безымянный градиент 2" cx="29.7" cy="-1656" fx="29.7" fy="-1656" r="4.2" gradientTransform="translate(-1.4 -1600.6) scale(1 -1)" gradientUnits="userSpaceOnUse">
      <stop offset=".8" stop-color="#000"/>
      <stop offset=".8" stop-color="#0a0a0a"/>
      <stop offset=".8" stop-color="#252525"/>
      <stop offset=".9" stop-color="#515151"/>
      <stop offset=".9" stop-color="#8f8f8f"/>
      <stop offset="1" stop-color="#dcdcdc"/>
      <stop offset="1" stop-color="#fff"/>
    </radialGradient>
  </defs>
  <path d="M36.8,60.8h-10.7c0,0-.4-.3-.8-.4-.9-.6-1-1.2-1.8-1.8-1.2-1.5-1.8-1.3-2.4-2.6-.5-.9,0-1-.5-1.8-.5-1-1-1-3.1-2.4-2.2-1.3-3.1-2.3-3.6-1.9-.3.3,0,.6-.4.8-.5,0-1.2-1.9-3.2-3.4-.6-.5-1.2-.9-1.6-1v-1.4c-.5-.3-.8-.3-.9,0,0,0,0,.4-.3.6l-.3.3h-.3c-.4.3-2.4,4.3-3.2,4.1-.3,0-.6-.5-.9-.9v-1c.3-1,.9-1.2,1.3-2.1.6-1,.5-2.2.3-2.3-.3,0-1,1.4-1.6,1.3l-.4-.3,2.4-4.5c-1-.4-1-.9-1-1,0-.3,0-.5.4-1.2.3-.6.4-1,.5-1.3,0,0-.3-.3-.3-.5-.3-.8.4-1.4,0-1.8-.3-.3-.9,0-1-.3-.3-.4.8-1,1.4-2.2,1-1.5,1-3.5.6-3.8-.6-.4-2.5,2.3-2.8,2.2,0,0,.8-1.2,1.3-2.9.5-1.3.6-2.6.6-3.1-.3,0-.4,0-.4-.3-.3-.3,0-.9.3-1.2h.3s0-.5-.3-.8c0,0-.4-.6-1.9-1.3,0,0-.3-6.3-.4-12.5V2.2c1.6.8,2.7,1.2,2.9,1.5,0,0,.5.5,1,.4h1.4l.3-.4,4.1,1.5c.3,0,.5,0,.8.3,1.9.6,3.8,1.3,5.7,1.9.3,0,.4-.3.6-.5.6-.4,1-.6,1.8-.9h6.6c2.4,0,4.7,0,6.8.3.2.3,1.5,2.3,3.5,2.3.3,0,.6,0,1-.2,0,0,.4.2.4.5,0,.3-.3.7-.8.7-1.1-2.4-1.7-2.9-2.1-2.9-.1,0-.4.1-.7,0-.2-.1-.4-.3-.4-.5,0,0-.3.3,0,.5,0,.4.8.5,1.2.4.5,0,.8-.4.9-.5,0-.3.4-.5.8-.8,0,0,.4-.4.4-.4,0,0-.5.5-.4.8,0,.5,2-.4,3.8,0,.9,0,1.4.5,2,.9,1-.4,2-.8,2.7-1,.5-.3,1-.4,1.9-.8.4,0,.6-.4.9-.5l4.3-1.4c1,0,1.9.3,2.5.4.4,0,.9.3,1.3,0,.3,0,.5-.3.6-.4,0,0,.4,0,.8-.4.7-.3,1-.5,1.4-.8.4-.3.9-.5,1.4-.9-.4.3-.6.5-1,.8-.8.6-1.2,1.3-1.2,1.3,0,0,1.2-1.5,1.8-1.2.9.4,0,4.8-.8,8.3-.2.7-.3,1.1-.4,1.5-.4,2.1-.8,5.1-.3,9-.4,0-.8.4-1.2.6-.5.4-1,.8-1.2,1v.3c0,.3,0,.5-.3.5,0,.4,0,1.7.3,1.8,0,0,.2,0,.3-.1.4-.2.8-.3,1.2-.4.2,0,.5-.1.8-.1.4,0,.7,0,1,0-.3,0-.6.1-.9.2.2.3.2.6,0,.8-.2.3-.8.3-1.2-.2.1.4.3,1.1.1,1.9-.2,1.1-.8,1.8-1,2.1v1.3c.3,2.1.5,3,.6,4.1,0,.9,0,2.2-.3,3.8-.3.8-.8,1.8-1.9,3-1.1,1.2-2.3,1.8-2.9,2.1,0,1.2,0,2.3,0,3.4l-1.3.3v-.3c-1.4,1.2-3.6,2.9-6.4,4.8-.6.5-1,.8-1.2.9-1.9,1.3-4.7,3.6-8,8.1.3-.1.6-.3.9-.4Z" fill="#08090b"/>
  <path d="M22.4,56h1.4v-2.7l.8-1.4h1.2v-14.2h0l-2.7-1h0s-.3.5-.8,1c0,6.1,0,12,0,18.1h0v.2c0,0,0,0,0,0h0Z" fill="#1b1b1b"/>
  <path d="M40.3,49.7h-3.6v-11.8h0l3.1-1.5h0l.5,1.5v11.8h0Z" fill="#1b1b1b"/>
  <rect x="42.8" y="24.1" width="2.5" height="7.7" fill="#1f1717"/>
  <path d="M40.5,39.8c2.9-2.1,6.1-3.9,9.1-5.9l-.4-5.3c-2.7,1.7-5.1,3.1-7.8,4.8-.6,1.3-1,2.3-1,2.3h0c-2,1.2-2.2,1.5-2.2,1.5-.4.9.6,3.3.4,2.6h1.8Z" fill="#e41d21"/>
  <path d="M22.4,39.9c-3.1-2.1-6.1-4-9.2-6.1,0-1.8,0-3.5.3-5.3,2.7,1.5,5.4,3.1,8,4.8.4,1.5.5,2.4.5,2.4l2.7,1.9h0l-1,2.1h0s-.4,0-1.2.3h0,0,0Z" fill="#e41d21"/>
  <path d="M22.2,39.2c-1.4-1-2.9-2.2-4.5-3v-3.1c1.4,1,3.1,1.9,4.7,2.9v3.4h-.2c0,0,0,0,0,0Z" fill="#fff"/>
  <path d="M45.4,36.1c-1.6,1-3.2,2.1-4.8,3,0-1.2,0-2.4,0-3.5,1.6-1,3.1-1.8,4.8-2.8,0,1,0,2.2,0,3.1h0c0,0,0,0,0,0Z" fill="#fff"/>
  <rect x="33.9" y="16.5" width="2.9" height="3" fill="#1e1e1e"/>
  <rect x="22.2" y="13.4" width="4.1" height="10" fill="#1c1c1c"/>
  <rect x="22.4" y="13.6" width="3.5" height="4.3" fill="#3d3d3e"/>
  <rect x="26.2" y="16.7" width="3.5" height="3.1" fill="#575656"/>
  <polygon points="22.4 18.2 25.9 18.2 25.9 18.2 22.4 18.2" fill="#c2c1c0"/>
  <rect x="22.4" y="18.4" width="3.5" height="1.5" fill="#494848"/>
  <rect x="26.2" y="20" width="3.5" height="1.8" fill="#3b3b3b"/>
  <rect x="26.2" y="10.9" width="7.8" height="5.4" fill="#303031"/>
  <rect x="26.2" y="13.8" width="3.3" height="2.7" fill="#4e4d4d"/>
  <path d="M39.4,16.5h-5.4v-5.4h6.7v4.8h0s-.5.3-1.3.9h0v-.2h0,0Z" fill="#5c5c5a"/>
  <rect x="36.4" y="7.3" width=".3" height="4.8" fill="#fff"/>
  <rect x="36.6" y="10.7" width="4.1" height=".3" fill="#fff"/>
  <rect x="29.7" y="6.5" width="6.7" height="4.3" fill="#383838"/>
  <path d="M36.7,10.7h4v-3.8h0v-.4h-3.7v4.1h-.2s0,0,0,0Z" fill="#4a494a"/>
  <path d="M39.4,3.8c-1,.8-2.3,1.4-3.3,2.6-.8.8-1.4,1.3-2.2,1.9,0,0-.3.3-.5.5,0,0,0,.3-.3.4h0c4.5-3.1,6.6-4.9,6.4-5.3h0,0Z" fill="#fdfdfd"/>
  <rect x="26.2" y="8" width="3.2" height="2.8" fill="#1e1e1e"/>
  <rect x="22.6" y="8" width="3.3" height="3" fill="#181919"/>
  <rect x="34.4" y="39.5" width="2.4" height="10.5" fill="#181919"/>
  <rect x="22.4" y="6.5" width="5.9" height="1.4" fill="#212220"/>
  <rect x="28.4" y="6.5" width="1" height="1.3" fill="#1c1c1c"/>
  <path d="M21,9.7h1v-3.1h-.6c-.3.3-.5.4-.5.4h0v2.9h0Z" fill="#1c1c1c"/>
  <path d="M18.2,9.8h2.7v-2.8c-.8.4-1.3.8-2.2,1-.4.5-.6.8-.6.8h0v1h0,0Z" fill="#2b2b2b"/>
  <rect x="18.3" y="10.2" width="3.8" height="3" fill="#1d1e1e"/>
  <path d="M27.1,58.1h-1.6c-.3,0-.6,0-1-.5,0-.4,0-.8,0-1v-.8h0c.3,0,0,.6,0,1s.3.6.8,1c.6,0,1.2,0,2,.3h0Z" fill="#30282b"/>
  <path d="M35.8,58.1h1.6c.3,0,.6,0,1-.5,0-.4,0-.8,0-1v-.8h0c-.3,0,0,.6,0,1s-.3.6-.8,1c-.6,0-1.2,0-2,.3h0Z" fill="#30282b"/>
  <path d="M29.9,58.9h-.3c0-.8-.3-1-.5-1-.5-.3-1.2,0-1.3-.3h2c0,0,.3.3.3.3h0v1.3h0v-.2h0q0,0,0,0Z" fill="#cb171d"/>
  <path d="M33.2,58.9h.3c0-.8.3-1,.5-1,.5-.3,1.2,0,1.3-.3h-2l-.3.3h0v1.3h0v-.2h0c0,0,0,0,0,0Z" fill="#cb171d"/>
  <rect x="25.1" y="52.8" width="12.8" height="1.5" fill="#1e1e1e"/>
  <polygon points="25.1 52.8 37.7 52.8 37.7 52.8 25.1 52.8" fill="url(#_Безымянный_градиент)"/>
  <polygon points="25 55.4 37.7 55.4 37.7 55.4 25 55.4" fill="url(#_Безымянный_градиент_2)"/>
  <rect x="25.1" y="54.5" width="12.8" height=".9" fill="#1c2225"/>
  <rect x="31.5" y="39.2" width="2.9" height="5.7" fill="#383939"/>
  <rect x="27.6" y="39.2" width="3.8" height="5.7" fill="#242424"/>
  <rect x="34.3" y="39.2" width="1" height="5.7" fill="#242424"/>
  <rect x="36.9" y="48" width="1.4" height="1.5" fill="#161918"/>
  <rect x="34.4" y="49.7" width="2.4" height="2.3" fill="#141515"/>
  <rect x="31.5" y="45.2" width="2.9" height="4.5" fill="#1b1b1b"/>
  <rect x="31.7" y="49.7" width="2.7" height="2.2" fill="#171818"/>
  <rect x="27.9" y="45.2" width="3.5" height="4.9" fill="#0d0e0e"/>
  <path d="M26.1,27h7.9v-10.3h-4.2v5.1h-3.5c0,1.8,0,3.4,0,5.2h0Z" fill="#181919"/>
  <rect x="18.3" y="14.1" width="3.7" height="9.7" fill="#262626"/>
  <polygon points="18.2 13.6 21.7 13.6 21.7 13.6 18.2 13.6" fill="#c2c1c0"/>
  <polygon points="40.7 13.5 44.2 13.5 44.2 13.5 40.7 13.5" fill="#c2c1c0"/>
  <rect x="34" y="19.3" width="2.5" height="7.6" fill="#1b1b1b"/>
  <rect x="36.9" y="24.1" width="3.7" height="4.4" fill="#272727"/>
  <rect x="36.9" y="18.4" width="3.6" height="5.4" fill="#111212"/>
  <rect x="13.1" y="18.2" width="4.8" height="6.7" fill="#171212"/>
  <rect x="13.1" y="25.3" width="4.8" height="2.9" fill="#171212"/>
  <rect x="18.5" y="24.5" width="3.8" height="3.3" fill="#171212"/>
  <path d="M16.4,11.2c-4.7-2.3-7-3.5-7-3.5h0s-1.2-1-3.6-3c.6,0,1.4.3,2.5.5,0,0,2,.5,5.9,2.4h0l1.2-.5c1.8.5,2.9.9,2.9.9h0s-.4.5-.5,1v1c-.5.5-1,1-1.4,1.5h0,0c0,0,0,0,0,0Z" fill="#2a2a2a"/>
  <path d="M14,7.5c-2-.9-3.8-1.5-5.9-2.4,0,0-.3-.3,0-.4,0,0,.3-.3.4-.3,2.4.9,4.7,1.7,6.9,2.6-.4,0-.9.4-1.2.5h0,0Z" fill="#262728"/>
  <path d="M5.4,4.5c-1-.5-1.9-1-2.9-1.5v-1.1c1.4.8,2.9,1.3,4.4,2,0,0,0-.4.4-.4s.4.3.6.3.3-.4.5-.5c0,0,.6-.5,4.2,1.7h.8c1,0,2.9.9,4.7,1.5,0,0,1,.5,1,.5,0,0,2-1,2.3-1.2,0,0,2.7-1.4,13.1,0h0s1.3-.4,2.9-.4h1.6l-.8.5h0s-1.8-.3-2.8.5h-14s-1.4.6-2.5,1.7c-.6.8-1,1.3-1,1.2v-1.4c0,0-2.5-.9-2.5-.9h0s-2.9-.8-4.7-1.5c-.6-.3-1.3-.4-1.9-.9h-.8v.5s-.9-.3-2.5-.8h-.4v.2h.3,0,0Z" fill="#fffffe"/>
  <path d="M5.1,21.4c.5.3.9.5.9.5l1.8-2.3c4.7-7,4.8-6.9,4.8-6.9,0,0-1,2.2-2.4,4.1-.9,1.3-1,1.2-1.6,2.3-1,1.7-1.9,3.6-1.9,3.6,1,.3,1,.5,1,.5,0,.3-.5.4-.5.6,0,.4,1.3.9,1,.6,0,0,1-1.3,1.4-1.9,1.4-1.9,2.4-3.3,2.4-3.3l-5.6,8.9s.3,1.3,0,2.7c-.3,1.8-.8,2.2-.5,2.6.3.4,1,.5,1,.5h0s.8-.5,1-.4c0,0-.5,1.2-1.2,2.1-1,1.2-1.3,1.2-1.6,2.1,0,.3-.4,1,0,1.8,0,0,.4.5,1,1,1.4,1.4,1,1,1.4,1.2,0,0,.3.3.5.4h.4c0-1.2,0-2.2,0-3.1,0-.8,0-1.4.3-1.4v8.5h0l1,.5h0v1.2h0s-1.3,0-1.8-.8c-.5-.6.3-1.5,0-1.7-.3,0-1.3,1-2.4,2.4-1.3,1.7-1.8,2.7-2.4,2.7s-.8-.5-.9-.9c-.3-.8.3-1.2,1-2.9.8-1.4,1-2.4.9-2.4s-1.2,1.5-1.8,1.4l-.4-.3h.5s.5-1.2,1-2.4c.6-1.3,1-2.1.9-2.3,0,0,0,0-.6-.4-.3-.3-.5-.3-.5-.4,0-.3,0-.5.4-1.3.3-.6.5-1.3.5-1.3h0s-.3-.3-.3-.4c-.3-.5.8-1.3.5-1.7,0-.3-.9,0-1-.3-.3-.4,1-1.2,1.4-2.9.4-1.2.4-2.9.4-2.9,0,0-.9.6-1.4,1.4,0,.3-.4.5-.6.5h-.4c-.3-.3.3-1,1-3,.6-1.5.3-.9.6-1.7.3-.5.5-1,.3-1.3,0-.3-.3-.3-.4-.5,0-.6.4-1,.4-1.4s-.4-.9-1.9-1.3c0-4.3-.2-8.6-.3-13h2.5v13.1-.5l.3.2h0s0,0,0,0Z" fill="#e41d21"/>
  <path d="M45,11.5h-4.3v-4.9h.9c0,1.2.4,1.4.4,1.4,0,0,.5.4.5.4h2.5s0,1.2,0,3.1h0Z" fill="#2b2b2b"/>
  <path d="M44.7,8.4h-2.8s0-.3-.5-.6c0-.4,0-.8,0-1,1,.6,2,1.2,2.9,1.8h.2v-.2Z" fill="#414142"/>
  <rect x="40.9" y="11.6" width="1.9" height="1.9" fill="#1f1f1f"/>
  <rect x="42.8" y="11.6" width="2" height="1.9" fill="#1e1e1e"/>
  <path d="M40.8,18.3h-3.8v-1.7h2.4l1.3-.9h0v2.6h0,0Z" fill="#171818"/>
  <rect x="40.9" y="13.8" width="4.2" height="4.5" fill="#282526"/>
  <rect x="42.8" y="13.8" width="2.3" height="2.3" fill="#2b2b2b"/>
  <rect x="42.8" y="18.4" width="2.3" height="1.4" fill="#2b2b2b"/>
  <rect x="40.9" y="18.5" width="1.9" height="1.5" fill="#1c1c1c"/>
  <rect x="42.8" y="20" width="2.4" height="3.8" fill="#1c1c1c"/>
  <rect x="40.8" y="20" width="1.8" height="3.6" fill="#141514"/>
  <path d="M61.1,2.7v-.5h.5c.2,0,.4-.5.4-.5-1.4.6-2.9,1.3-4.3,1.9h-3.2c-.8,0-6.1,2.1-6.8,2.4-1.3.5-3.2,1.2-3.2,1.2h0c-.8,0-.6-.5-2-1-2-.8-3.7-.4-3.8,0l-.3.4h2.3v.3s.3,0,.5-.3h.6c.6.3,1.4.8,2.4,1.2l1,.6v5.3s0-1.4,0-3c0-.4,0-.8.3-1.4v-1.3h0l.6-.3c.9-.4,4.1-1.3,4.1-1.3,0,0-1.9.3-3.6,1,0,0-1,.5-1,.4h0l9.9-3.3s.3.4.5.5l.5.3,3.5-1.3,1-1h.5c0,0,0,0,0,0h0Z" fill="#fcfcfc"/>
  <path d="M60.4,21c-2.8,2.1-2.9,2.3-2.9,2.3,0,0-.3,1.7,0,1.8l.9-.8,2.4-.2c0,.3,0,.5,0,.8-.9,1.9-1.8,3.8-2.8,5.6h0l1.3,8.1-2,1.9.4,1.5s-.5.3-.9,0c-.4,0-.4-.5-.6-.5-.4,0-.6.4-1.2,1-.7.6-1,.9-1.3,1v.3h0v3h0-1.4s-.3-1,.3-1.4h.8c0-3.3-.3-4.5-.3-4.5v-3.5s0,.6.4,2.7c0,.9.3,1.9.3,1.9,0,0,3.3-2.9,3.5-2.9,0,0,0-4.3-.5-7.5,0-.9-.4-1.4-.4-2.4v-1.8c-.3-1-1-1.4-1.2-1.7-2.3-1.8-4.8-7.1-4.7-7.2l4.5,6.1s1-.4,1.3-1v-.8c0-1,0-1.8,0-1.8l-.6-.3c-.9-.4-5.7-8.1-5-8.4.8-.4,5.9,8.4,6,8.4l.3,1.9s.5-.5,1.4-1.3c0-4.1-.3-8.4-.4-12.4h.3c0,3.5.5,3.6.5,3.6,0,0,.3,0,2-1.5,0,1.6,0,3.2,0,5,0,1.8-.2,3.4-.4,5Z" fill="#e51f27"/>
  <rect x="40.9" y="24.4" width="1.9" height="7.4" fill="#100d0f"/>
  <rect x="36.9" y="28.4" width="1.4" height="3" fill="#0d0e0e"/>
  <rect x="38.8" y="28.4" width="1.9" height="3" fill="#1a1615"/>
  <rect x="26.1" y="27" width="5.4" height="4.1" fill="#0c0d0e"/>
  <rect x="22" y="23.9" width="4" height="4.4" fill="#0c0d0e"/>
  <rect x="31.7" y="27.1" width="4.8" height="3.6" fill="#111212"/>
  <rect x="31.3" y="31.5" width="2.7" height="3.3" fill="#111212"/>
  <rect x="45.4" y="24.4" width="4.2" height="2.9" fill="#0a0a0b"/>
  <path d="M55.7,6.2c-2.3,1.5-3.3,2.4-3.3,2.4h0s-2.3,1.2-6.6,3.4v-4c1.4-.5,2.9-1,4.3-1.4,1.9,0,3.6-.3,5.5-.4h0Z" fill="#333433"/>
  <rect x="45.6" y="18.4" width="4" height="5.3" fill="#1f201f"/>
  <path d="M54.1,7.5c-1.9,1.7-3.3,3-4.3,4s-3.6,3.6-4,3.3h0c0,0,0,1.7,0,1.7h0s-.3,0,0-2.1v-1.4h.3v1.5s4.7-3.9,8.5-7.1h-.4c0,0,0,0,0,0h0Z" fill="#9b9a9a"/>
  <path d="M52,7c0,0-.4.4-.5.5h0s-.6-.5-1-1c.6-.3,1-.4,1.8-.6v1.2h-.2c0,0,0,0,0,0h0Z" fill="#e5212b"/>
  <path d="M51.1,7.5c0,0-.4.3-.5.4-.6.4-1.2.9-1.6,1.3v.3c.4-.3,2.2-1.7,2.2-1.7h0v-.3h0Z" fill="#fcfcfc"/>
  <path d="M53.9,5.7c-.9.6-1.8,1.2-2.7,1.9,0,0,.3,0,.5.3.6-.6,1.3-1.2,2-1.8v-.3h.2c0,0,0,0,0,0h0Z" fill="#fcfcfc"/>
  <path d="M52.4,8.9v-.5c-2.3,1.2-4.5,2.3-6.7,3.4v2.8c2.3-1.9,4.5-3.8,6.7-5.7h0Z" fill="#7d7d7e"/>
  <path d="M55.7,6.2c0,0-.3-.4-.5-.5,0,0,0-.3.3-.4h1l-.8.8h0c0,0,0,.1,0,.1Z" fill="#f18da0"/>
  <path d="M45.8,53.1l3.2-3.3c0-.3-.3-.4-.3-.6-.8.8-1.6,1.3-2.4,2.1v-1h0l-3.5,3h0s.3-1,0-1c-.3,0-1.3,2.3-1.3,2.3h0l-.6-12.3h0v13.6h0l-3.8,4.8h-10.8v.3h11v-.3c0-.4,2.7-3.3,2.7-3.3h0l2.2-1.3h0v-.6h0l3.3-3.1h0l.3.9h0,0v-.2h-.1Z" fill="#e41d21"/>
  <path d="M31.5,62.3c-1-.5-2.5-1-2.5-1h0v-.4h5.1v.5s-1.3.5-2.5,1h-.2s0,0,0,0Z" fill="#08090b"/>
  <path d="M25.4,60.4c-1.4-1.4-2.9-2.9-4.3-4.3-.3-1.2-.4-1.8-.4-1.8h0l-2.7-2.1h0v.5h-.9c0,0,0-.6,0-.6h0c-.9-.5-1-.6-1-.6-1-.8-2-1.5-2-1.5h0v.6h-.4v-1.2h0l.4-.3h0l2.2,1.5h0s0-.4.3-.4c0,0,.3,0,1.4,1.3h0l.4-.3h0l2,1.7h0s0,0,.5-.4c1,2.4,1.4,3.6,1.4,3.6h0l3.1,4h-.2v.2h0Z" fill="#e41d21"/>
</svg>
